Coordinates
version=1
nRows=21
nColumns=22
inDegrees=yes

Units are S.I. units (second, meters, Newtons, ...)
If the header above contains a line with 'inDegrees', this indicates whether rotational values are in degrees (yes) or radians (no).

endheader
time	pelvis_tilt	pelvis_list	pelvis_rotation	pelvis_tx	pelvis_ty	pelvis_tz	hip_flexion_r	hip_adduction_r	hip_rotation_r	knee_angle_r	ankle_angle_r	subtalar_angle_r	hip_flexion_l	hip_adduction_l	hip_rotation_l	knee_angle_l	ankle_angle_l	subtalar_angle_l	lumbar_extension	lumbar_bending	lumbar_rotation
      2.43000000	     -5.21047609	     -4.65244987	     -5.16057230	      0.31754512	      0.92380222	     -0.22267900	      5.18409562	     10.32339782	      4.01540388	    -25.30233826	     19.43199984	     -4.81535019	     36.59127420	    -10.57725804	     -4.21397053	    -33.80404988	      6.89140362	      5.28116908	     -9.40805811	      1.44136021	      5.09139131
      2.44000000	     -5.01313729	     -4.68147557	     -5.05178166	      0.31006181	      0.92540055	     -0.22166142	      5.29482021	     10.45988698	      3.83567413	    -24.94094804	     19.09236173	     -5.06005656	     36.27042254	    -10.72014789	     -4.08472610	    -35.83659087	      7.15987388	      4.60262104	     -9.49640297	      1.45967185	      5.08640314
      2.45000000	     -4.86457310	     -4.71372734	     -4.97412332	      0.30268927	      0.92703435	     -0.22067471	      5.44577065	     10.59591441	      3.71866332	    -24.57215719	     18.69103425	     -5.14154168	     35.89424835	    -10.86323417	     -3.95809607	    -37.83388038	      7.50304986	      4.13529827	     -9.50720122	      1.49015210	      5.09290784
      2.46000000	     -4.76996529	     -4.72618616	     -4.92553281	      0.29535070	      0.92864605	     -0.21976139	      5.69277666	     10.69368088	      3.57328570	    -24.26975895	     18.25199836	     -5.25647361	     35.46732101	    -10.96766952	     -3.82764227	    -39.76110748	      7.82164516	      3.59981201	     -9.44586187	      1.50647197	      5.14074994
      2.47000000	     -4.71429801	     -4.71929404	     -4.90932199	      0.28804051	      0.93023292	     -0.21890253	      6.00736929	     10.76341860	      3.47227276	    -24.01812204	     17.78162164	     -5.25921369	     34.96997467	    -11.02978000	     -3.69344054	    -41.60150460	      8.24488239	      3.28176440	     -9.33514797	      1.51304092	      5.17276659
      2.48000000	     -4.71342986	     -4.70250357	     -4.90584040	      0.28073838	      0.93172803	     -0.21812079	      6.41165576	     10.80916894	      3.32971848	    -23.81864126	     17.29151570	     -5.23879502	     34.44033865	    -11.04461337	     -3.54064830	    -43.35491663	      8.65503712	      3.02768581	     -9.16210295	      1.52194029	      5.20344388
      2.49000000	     -4.75326818	     -4.66536606	     -4.91965608	      0.27343859	      0.93312640	     -0.21740525	      6.88929254	     10.82109433	      3.15252732	    -23.66752503	     16.79381771	     -5.18859688	     33.86004523	    -11.00122435	     -3.38203449	    -45.00598591	      9.08746827	      2.88085807	     -8.94558060	      1.51763587	      5.22455247
      2.50000000	     -4.83791379	     -4.61975742	     -4.93775790	      0.26613199	      0.93438468	     -0.21676041	      7.44320613	     10.81708821	      2.93345399	    -23.56226111	     16.30608352	     -5.11563025	     33.24843903	    -10.90281104	     -3.20359722	    -46.55814990	      9.51369478	      2.85046380	     -8.68588979	      1.51652183	      5.22178688
      2.51000000	     -4.94382699	     -4.55649047	     -4.96007053	      0.25883675	      0.93553076	     -0.21621730	      8.04243039	     10.78258590	      2.67811969	    -23.49336916	     15.82690090	     -5.02800744	     32.57546485	    -10.74193344	     -3.03018112	    -47.99343239	      9.94530422	      2.92228710	     -8.40960822	      1.50955436	      5.20028564
      2.52000000	     -5.05832374	     -4.47995039	     -4.98078276	      0.25157013	      0.93657216	     -0.21577032	      8.66577314	     10.72615267	      2.40376014	    -23.45090103	     15.36483284	     -4.93253625	     31.82856345	    -10.52405890	     -2.86554045	    -49.30132149	     10.35485868	      3.07563574	     -8.13165977	      1.49748639	      5.15982257
      2.53000000	     -5.16599122	     -4.39515453	     -4.99064516	      0.24435772	      0.93752581	     -0.21546022	      9.28864714	     10.65340829	      2.14150126	    -23.42622219	     14.92417525	     -4.83286565	     30.99262908	    -10.25290186	     -2.71306156	    -50.47119399	     10.72876934	      3.27649921	     -7.86719810	      1.49049212	      5.09393423
      2.54000000	     -5.25294850	     -4.30535321	     -4.97981796	      0.23723241	      0.93840747	     -0.21530546	      9.88988564	     10.56984107	      1.91973268	    -23.41520923	     14.51102942	     -4.73348874	     30.05047494	     -9.93191701	     -2.57152710	    -51.48807484	     11.05585118	      3.48189039	     -7.62914003	      1.49027259	      4.99065437
      2.55000000	     -5.31345422	     -4.21516247	     -4.94366675	      0.23021554	      0.93921913	     -0.21533809	     10.46202905	     10.48102154	      1.76275355	    -23.42035233	     14.12770510	     -4.63043748	     28.99691871	     -9.56785149	     -2.43990645	    -52.34447438	     11.32498106	      3.68430430	     -7.42034133	      1.50659040	      4.85190440
      2.56000000	     -5.34697143	     -4.13002743	     -4.87759421	      0.22330472	      0.93994723	     -0.21555229	     11.00537983	     10.39329191	      1.67419592	    -23.44652405	     13.78309597	     -4.51365831	     27.83712206	     -9.17084893	     -2.30749994	    -53.03563535	     11.54072730	      3.90227362	     -7.24046243	      1.54293933	      4.67121755
      2.57000000	     -5.35759497	     -4.05357513	     -4.78519997	      0.21647163	      0.94056871	     -0.21592182	     11.52864368	     10.31022506	      1.64006719	    -23.49774530	     13.48287478	     -4.37182243	     26.58505524	     -8.75726242	     -2.17801097	    -53.56649091	     11.71310642	      4.15292133	     -7.08623285	      1.60039466	      4.45361529
      2.58000000	     -5.36370043	     -3.99321131	     -4.68166703	      0.20965652	      0.94103330	     -0.21636550	     12.06734339	     10.24188038	      1.62017248	    -23.59556390	     13.23195171	     -4.21774302	     25.27223259	     -8.35247876	     -2.05357188	    -53.94449054	     11.84240603	      4.42220169	     -6.94094294	      1.67763733	      4.21027437
      2.59000000	     -5.36797195	     -3.94824462	     -4.56704411	      0.20281406	      0.94133281	     -0.21689819	     12.62808581	     10.18059455	      1.58643066	    -23.73776401	     13.02333497	     -4.02627222	     23.91494563	     -7.96100703	     -1.93761016	    -54.17542238	     11.95679770	      4.76907475	     -6.80682909	      1.78042146	      3.94731879
      2.60000000	     -5.39545922	     -3.94508085	     -4.46425374	      0.19591342	      0.94143203	     -0.21741938	     13.23111214	     10.16560736	      1.54826244	    -23.90989412	     12.81567905	     -3.74593986	     22.55118582	     -7.63404956	     -1.84297753	    -54.27544139	     12.09612324	      5.24034677	     -6.65587271	      1.92705540	      3.68770582
      2.61000000	     -5.43091134	     -3.93897443	     -4.33388104	      0.18893293	      0.94133857	     -0.21802209	     13.88434047	     10.13175758	      1.43302857	    -24.14560052	     12.70534133	     -3.56030014	     21.18317926	     -7.28661505	     -1.71279004	    -54.24557470	     12.17817507	      5.64970366	     -6.50438781	      2.06782493	      3.38650247
      2.62000000	     -5.46828466	     -3.96455519	     -4.20138449	      0.18187604	      0.94111132	     -0.21867714	     14.55355007	     10.12173433	      1.29962242	    -24.39733370	     12.57758831	     -3.32628750	     19.80285317	     -6.97613209	     -1.57850735	    -54.08779671	     12.31700088	      6.18255322	     -6.36194709	      2.24568664	      3.08528809
      2.63000000	     -5.51892604	     -4.03765948	     -4.07974511	      0.17473915	      0.94073833	     -0.21933015	     15.24732177	     10.15983475	      1.16005353	    -24.66249439	     12.43186962	     -3.02665652	     18.43599735	     -6.73916191	     -1.46809989	    -53.82249155	     12.50124631	      6.83529866	     -6.21540677	      2.47194448	      2.79465720
